<?xml version="1.0" encoding="UTF-8" standalone="no"?>
<svg
   width="103"
   height="108"
   viewBox="0 0 103 108"
   fill="none"
   version="1.1"
   id="svg94"
   xmlns="http://www.w3.org/2000/svg"
   xmlns:svg="http://www.w3.org/2000/svg">
  <path
     d="M 64.3092,0.259394 C 60.1163,-0.864113 55.8423,1.77302 54.9657,6.02449 L 50.9884,25.3158 C 48.3904,37.9168 38.5465,47.7653 25.9467,50.3692 L 7.02287,54.2801 c -4.251,0.8785 -6.88689,5.1528 -5.7634,9.3457 1.12362,4.1934 5.54433,6.5771 9.66533,5.2115 l 18.4159,-6.1022 c 12.2444,-4.0572 25.7288,-0.4441 34.3041,9.1918 l 12.8986,14.4938 c 2.8855,3.2424 7.9048,3.3885 10.974,0.3193 3.0697,-3.0697 2.923,-8.0899 -0.3205,-10.9752 L 72.609,62.7885 C 62.9468,54.1936 59.3239,40.6746 63.3932,28.3998 L 69.5188,9.92278 c 1.3659,-4.11993 -1.017,-8.54 -5.2096,-9.663386 z"
     fill="url(#paint0_linear_1340_94)"
     id="path1"
     style="fill:url(#paint0_linear_1340_94)" />
  <path
     d="M 64.3092,0.259394 C 60.1163,-0.864113 55.8423,1.77302 54.9657,6.02449 L 50.9884,25.3158 C 48.3904,37.9168 38.5465,47.7653 25.9467,50.3692 L 7.02287,54.2801 c -4.251,0.8785 -6.88689,5.1528 -5.7634,9.3457 1.12362,4.1934 5.54433,6.5771 9.66533,5.2115 l 18.4159,-6.1022 c 12.2444,-4.0572 25.7288,-0.4441 34.3041,9.1918 l 12.8986,14.4938 c 2.8855,3.2424 7.9048,3.3885 10.974,0.3193 3.0697,-3.0697 2.923,-8.0899 -0.3205,-10.9752 L 72.609,62.7885 C 62.9468,54.1936 59.3239,40.6746 63.3932,28.3998 L 69.5188,9.92278 c 1.3659,-4.11993 -1.017,-8.54 -5.2096,-9.663386 z"
     fill="url(#paint1_linear_1340_94)"
     fill-opacity="0.46"
     id="path2"
     style="fill:url(#paint1_linear_1340_94)" />
  <path
     d="M 64.3092,0.259394 C 60.1163,-0.864113 55.8423,1.77302 54.9657,6.02449 L 50.9884,25.3158 C 48.3904,37.9168 38.5465,47.7653 25.9467,50.3692 L 7.02287,54.2801 c -4.251,0.8785 -6.88689,5.1528 -5.7634,9.3457 1.12362,4.1934 5.54433,6.5771 9.66533,5.2115 l 18.4159,-6.1022 c 12.2444,-4.0572 25.7288,-0.4441 34.3041,9.1918 l 12.8986,14.4938 c 2.8855,3.2424 7.9048,3.3885 10.974,0.3193 3.0697,-3.0697 2.923,-8.0899 -0.3205,-10.9752 L 72.609,62.7885 C 62.9468,54.1936 59.3239,40.6746 63.3932,28.3998 L 69.5188,9.92278 c 1.3659,-4.11993 -1.017,-8.54 -5.2096,-9.663386 z"
     fill="url(#paint2_linear_1340_94)"
     fill-opacity="0.66"
     id="path3"
     style="fill:url(#paint2_linear_1340_94)" />
  <path
     d="M 64.3092,0.259394 C 60.1163,-0.864113 55.8423,1.77302 54.9657,6.02449 L 50.9884,25.3158 C 48.3904,37.9168 38.5465,47.7653 25.9467,50.3692 L 7.02287,54.2801 c -4.251,0.8785 -6.88689,5.1528 -5.7634,9.3457 1.12362,4.1934 5.54433,6.5771 9.66533,5.2115 l 18.4159,-6.1022 c 12.2444,-4.0572 25.7288,-0.4441 34.3041,9.1918 l 12.8986,14.4938 c 2.8855,3.2424 7.9048,3.3885 10.974,0.3193 3.0697,-3.0697 2.923,-8.0899 -0.3205,-10.9752 L 72.609,62.7885 C 62.9468,54.1936 59.3239,40.6746 63.3932,28.3998 L 69.5188,9.92278 c 1.3659,-4.11993 -1.017,-8.54 -5.2096,-9.663386 z"
     fill="url(#paint3_linear_1340_94)"
     fill-opacity="0.67"
     id="path4"
     style="fill:url(#paint3_linear_1340_94)" />
  <path
     d="M 64.3092,0.259394 C 60.1163,-0.864113 55.8423,1.77302 54.9657,6.02449 L 50.9884,25.3158 C 48.3904,37.9168 38.5465,47.7653 25.9467,50.3692 L 7.02287,54.2801 c -4.251,0.8785 -6.88689,5.1528 -5.7634,9.3457 1.12362,4.1934 5.54433,6.5771 9.66533,5.2115 l 18.4159,-6.1022 c 12.2444,-4.0572 25.7288,-0.4441 34.3041,9.1918 l 12.8986,14.4938 c 2.8855,3.2424 7.9048,3.3885 10.974,0.3193 3.0697,-3.0697 2.923,-8.0899 -0.3205,-10.9752 L 72.609,62.7885 C 62.9468,54.1936 59.3239,40.6746 63.3932,28.3998 L 69.5188,9.92278 c 1.3659,-4.11993 -1.017,-8.54 -5.2096,-9.663386 z"
     fill="url(#paint4_linear_1340_94)"
     id="path5"
     style="fill:url(#paint4_linear_1340_94)" />
  <path
     d="M 64.3092,0.259394 C 60.1163,-0.864113 55.8423,1.77302 54.9657,6.02449 L 50.9884,25.3158 C 48.3904,37.9168 38.5465,47.7653 25.9467,50.3692 L 7.02287,54.2801 c -4.251,0.8785 -6.88689,5.1528 -5.7634,9.3457 1.12362,4.1934 5.54433,6.5771 9.66533,5.2115 l 18.4159,-6.1022 c 12.2444,-4.0572 25.7288,-0.4441 34.3041,9.1918 l 12.8986,14.4938 c 2.8855,3.2424 7.9048,3.3885 10.974,0.3193 3.0697,-3.0697 2.923,-8.0899 -0.3205,-10.9752 L 72.609,62.7885 C 62.9468,54.1936 59.3239,40.6746 63.3932,28.3998 L 69.5188,9.92278 c 1.3659,-4.11993 -1.017,-8.54 -5.2096,-9.663386 z"
     fill="url(#paint5_radial_1340_94)"
     fill-opacity="0.94"
     id="path6"
     style="fill:url(#paint5_radial_1340_94)" />
  <path
     d="M 64.3092,0.259394 C 60.1163,-0.864113 55.8423,1.77302 54.9657,6.02449 L 50.9884,25.3158 C 48.3904,37.9168 38.5465,47.7653 25.9467,50.3692 L 7.02287,54.2801 c -4.251,0.8785 -6.88689,5.1528 -5.7634,9.3457 1.12362,4.1934 5.54433,6.5771 9.66533,5.2115 l 18.4159,-6.1022 c 12.2444,-4.0572 25.7288,-0.4441 34.3041,9.1918 l 12.8986,14.4938 c 2.8855,3.2424 7.9048,3.3885 10.974,0.3193 3.0697,-3.0697 2.923,-8.0899 -0.3205,-10.9752 L 72.609,62.7885 C 62.9468,54.1936 59.3239,40.6746 63.3932,28.3998 L 69.5188,9.92278 c 1.3659,-4.11993 -1.017,-8.54 -5.2096,-9.663386 z"
     fill="url(#paint6_radial_1340_94)"
     fill-opacity="0.1"
     id="path7"
     style="fill:url(#paint6_radial_1340_94)" />
  <path
     d="m 14.1852,24.3911 c -3.429,-3.1024 -3.5624,-8.4435 -0.2926,-11.7132 3.2697,-3.26978 8.6107,-3.13634 11.7131,0.2926 l 9.7534,10.7801 c 2.6309,2.9078 2.5194,7.3677 -0.2533,10.1405 -2.7728,2.7728 -7.2328,2.8842 -10.1405,0.2533 z"
     fill="url(#paint7_linear_1340_94)"
     id="path8"
     style="fill:url(#paint7_linear_1340_94)" />
  <path
     d="m 14.1852,24.3911 c -3.429,-3.1024 -3.5624,-8.4435 -0.2926,-11.7132 3.2697,-3.26978 8.6107,-3.13634 11.7131,0.2926 l 9.7534,10.7801 c 2.6309,2.9078 2.5194,7.3677 -0.2533,10.1405 -2.7728,2.7728 -7.2328,2.8842 -10.1405,0.2533 z"
     fill="url(#paint8_linear_1340_94)"
     fill-opacity="0.46"
     id="path9"
     style="fill:url(#paint8_linear_1340_94)" />
  <path
     d="m 14.1852,24.3911 c -3.429,-3.1024 -3.5624,-8.4435 -0.2926,-11.7132 3.2697,-3.26978 8.6107,-3.13634 11.7131,0.2926 l 9.7534,10.7801 c 2.6309,2.9078 2.5194,7.3677 -0.2533,10.1405 -2.7728,2.7728 -7.2328,2.8842 -10.1405,0.2533 z"
     fill="url(#paint9_linear_1340_94)"
     fill-opacity="0.66"
     id="path10"
     style="fill:url(#paint9_linear_1340_94)" />
  <path
     d="m 14.1852,24.3911 c -3.429,-3.1024 -3.5624,-8.4435 -0.2926,-11.7132 3.2697,-3.26978 8.6107,-3.13634 11.7131,0.2926 l 9.7534,10.7801 c 2.6309,2.9078 2.5194,7.3677 -0.2533,10.1405 -2.7728,2.7728 -7.2328,2.8842 -10.1405,0.2533 z"
     fill="url(#paint10_linear_1340_94)"
     fill-opacity="0.67"
     id="path11"
     style="fill:url(#paint10_linear_1340_94)" />
  <path
     d="m 14.1852,24.3911 c -3.429,-3.1024 -3.5624,-8.4435 -0.2926,-11.7132 3.2697,-3.26978 8.6107,-3.13634 11.7131,0.2926 l 9.7534,10.7801 c 2.6309,2.9078 2.5194,7.3677 -0.2533,10.1405 -2.7728,2.7728 -7.2328,2.8842 -10.1405,0.2533 z"
     fill="url(#paint11_linear_1340_94)"
     id="path12"
     style="fill:url(#paint11_linear_1340_94)" />
  <path
     d="m 14.1852,24.3911 c -3.429,-3.1024 -3.5624,-8.4435 -0.2926,-11.7132 3.2697,-3.26978 8.6107,-3.13634 11.7131,0.2926 l 9.7534,10.7801 c 2.6309,2.9078 2.5194,7.3677 -0.2533,10.1405 -2.7728,2.7728 -7.2328,2.8842 -10.1405,0.2533 z"
     fill="url(#paint12_radial_1340_94)"
     fill-opacity="0.94"
     id="path13"
     style="fill:url(#paint12_radial_1340_94)" />
  <path
     d="m 14.1852,24.3911 c -3.429,-3.1024 -3.5624,-8.4435 -0.2926,-11.7132 3.2697,-3.26978 8.6107,-3.13634 11.7131,0.2926 l 9.7534,10.7801 c 2.6309,2.9078 2.5194,7.3677 -0.2533,10.1405 -2.7728,2.7728 -7.2328,2.8842 -10.1405,0.2533 z"
     fill="url(#paint13_radial_1340_94)"
     fill-opacity="0.1"
     id="path14"
     style="fill:url(#paint13_radial_1340_94)" />
  <path
     d="m 90.0279,30.3514 c 4.4013,-1.4184 9.0935,1.1366 10.2901,5.6031 1.197,4.4666 -1.5891,9.0253 -6.1099,9.9976 l -14.2124,3.0567 c -3.8337,0.8245 -7.6404,-1.502 -8.6553,-5.2897 -1.0149,-3.7877 1.1186,-7.7058 4.8508,-8.9086 z"
     fill="url(#paint14_linear_1340_94)"
     id="path15"
     style="fill:url(#paint14_linear_1340_94)" />
  <path
     d="m 90.0279,30.3514 c 4.4013,-1.4184 9.0935,1.1366 10.2901,5.6031 1.197,4.4666 -1.5891,9.0253 -6.1099,9.9976 l -14.2124,3.0567 c -3.8337,0.8245 -7.6404,-1.502 -8.6553,-5.2897 -1.0149,-3.7877 1.1186,-7.7058 4.8508,-8.9086 z"
     fill="url(#paint15_linear_1340_94)"
     fill-opacity="0.46"
     id="path16"
     style="fill:url(#paint15_linear_1340_94)" />
  <path
     d="m 90.0279,30.3514 c 4.4013,-1.4184 9.0935,1.1366 10.2901,5.6031 1.197,4.4666 -1.5891,9.0253 -6.1099,9.9976 l -14.2124,3.0567 c -3.8337,0.8245 -7.6404,-1.502 -8.6553,-5.2897 -1.0149,-3.7877 1.1186,-7.7058 4.8508,-8.9086 z"
     fill="url(#paint16_linear_1340_94)"
     fill-opacity="0.66"
     id="path17"
     style="fill:url(#paint16_linear_1340_94)" />
  <path
     d="m 90.0279,30.3514 c 4.4013,-1.4184 9.0935,1.1366 10.2901,5.6031 1.197,4.4666 -1.5891,9.0253 -6.1099,9.9976 l -14.2124,3.0567 c -3.8337,0.8245 -7.6404,-1.502 -8.6553,-5.2897 -1.0149,-3.7877 1.1186,-7.7058 4.8508,-8.9086 z"
     fill="url(#paint17_linear_1340_94)"
     fill-opacity="0.67"
     id="path18"
     style="fill:url(#paint17_linear_1340_94)" />
  <path
     d="m 90.0279,30.3514 c 4.4013,-1.4184 9.0935,1.1366 10.2901,5.6031 1.197,4.4666 -1.5891,9.0253 -6.1099,9.9976 l -14.2124,3.0567 c -3.8337,0.8245 -7.6404,-1.502 -8.6553,-5.2897 -1.0149,-3.7877 1.1186,-7.7058 4.8508,-8.9086 z"
     fill="url(#paint18_linear_1340_94)"
     id="path19"
     style="fill:url(#paint18_linear_1340_94)" />
  <path
     d="m 90.0279,30.3514 c 4.4013,-1.4184 9.0935,1.1366 10.2901,5.6031 1.197,4.4666 -1.5891,9.0253 -6.1099,9.9976 l -14.2124,3.0567 c -3.8337,0.8245 -7.6404,-1.502 -8.6553,-5.2897 -1.0149,-3.7877 1.1186,-7.7058 4.8508,-8.9086 z"
     fill="url(#paint19_radial_1340_94)"
     fill-opacity="0.94"
     id="path20"
     style="fill:url(#paint19_radial_1340_94)" />
  <path
     d="m 90.0279,30.3514 c 4.4013,-1.4184 9.0935,1.1366 10.2901,5.6031 1.197,4.4666 -1.5891,9.0253 -6.1099,9.9976 l -14.2124,3.0567 c -3.8337,0.8245 -7.6404,-1.502 -8.6553,-5.2897 -1.0149,-3.7877 1.1186,-7.7058 4.8508,-8.9086 z"
     fill="url(#paint20_radial_1340_94)"
     fill-opacity="0.1"
     id="path21"
     style="fill:url(#paint20_radial_1340_94)" />
  <path
     d="m 46.5794,93.3443 c -0.9723,4.5208 -5.531,7.3067 -9.9976,6.1101 -4.4666,-1.1969 -7.0215,-5.889 -5.6032,-10.2903 l 4.4592,-13.8367 c 1.2027,-3.7322 5.1209,-5.8657 8.9086,-4.8508 3.7876,1.0149 6.1141,4.8216 5.2896,8.6552 z"
     fill="url(#paint21_linear_1340_94)"
     id="path22"
     style="fill:url(#paint21_linear_1340_94)" />
  <path
     d="m 46.5794,93.3443 c -0.9723,4.5208 -5.531,7.3067 -9.9976,6.1101 -4.4666,-1.1969 -7.0215,-5.889 -5.6032,-10.2903 l 4.4592,-13.8367 c 1.2027,-3.7322 5.1209,-5.8657 8.9086,-4.8508 3.7876,1.0149 6.1141,4.8216 5.2896,8.6552 z"
     fill="url(#paint22_linear_1340_94)"
     fill-opacity="0.46"
     id="path23"
     style="fill:url(#paint22_linear_1340_94)" />
  <path
     d="m 46.5794,93.3443 c -0.9723,4.5208 -5.531,7.3067 -9.9976,6.1101 -4.4666,-1.1969 -7.0215,-5.889 -5.6032,-10.2903 l 4.4592,-13.8367 c 1.2027,-3.7322 5.1209,-5.8657 8.9086,-4.8508 3.7876,1.0149 6.1141,4.8216 5.2896,8.6552 z"
     fill="url(#paint23_linear_1340_94)"
     fill-opacity="0.66"
     id="path24"
     style="fill:url(#paint23_linear_1340_94)" />
  <path
     d="m 46.5794,93.3443 c -0.9723,4.5208 -5.531,7.3067 -9.9976,6.1101 -4.4666,-1.1969 -7.0215,-5.889 -5.6032,-10.2903 l 4.4592,-13.8367 c 1.2027,-3.7322 5.1209,-5.8657 8.9086,-4.8508 3.7876,1.0149 6.1141,4.8216 5.2896,8.6552 z"
     fill="url(#paint24_linear_1340_94)"
     fill-opacity="0.67"
     id="path25"
     style="fill:url(#paint24_linear_1340_94)" />
  <path
     d="m 46.5794,93.3443 c -0.9723,4.5208 -5.531,7.3067 -9.9976,6.1101 -4.4666,-1.1969 -7.0215,-5.889 -5.6032,-10.2903 l 4.4592,-13.8367 c 1.2027,-3.7322 5.1209,-5.8657 8.9086,-4.8508 3.7876,1.0149 6.1141,4.8216 5.2896,8.6552 z"
     fill="url(#paint25_linear_1340_94)"
     id="path26"
     style="fill:url(#paint25_linear_1340_94)" />
  <path
     d="m 46.5794,93.3443 c -0.9723,4.5208 -5.531,7.3067 -9.9976,6.1101 -4.4666,-1.1969 -7.0215,-5.889 -5.6032,-10.2903 l 4.4592,-13.8367 c 1.2027,-3.7322 5.1209,-5.8657 8.9086,-4.8508 3.7876,1.0149 6.1141,4.8216 5.2896,8.6552 z"
     fill="url(#paint26_radial_1340_94)"
     fill-opacity="0.94"
     id="path27"
     style="fill:url(#paint26_radial_1340_94)" />
  <path
     d="m 46.5794,93.3443 c -0.9723,4.5208 -5.531,7.3067 -9.9976,6.1101 -4.4666,-1.1969 -7.0215,-5.889 -5.6032,-10.2903 l 4.4592,-13.8367 c 1.2027,-3.7322 5.1209,-5.8657 8.9086,-4.8508 3.7876,1.0149 6.1141,4.8216 5.2896,8.6552 z"
     fill="url(#paint27_radial_1340_94)"
     fill-opacity="0.1"
     id="path28"
     style="fill:url(#paint27_radial_1340_94)" />
  <defs
     id="defs94">
    <linearGradient
       id="paint0_linear_1340_94"
       x1="7.2332702"
       y1="62.3326"
       x2="48.123501"
       y2="30.169001"
       gradientUnits="userSpaceOnUse">
      <stop
         stop-color="#FF9EFA"
         id="stop35" />
      <stop
         offset="0.422647"
         stop-color="#F55C15"
         stop-opacity="0.84"
         id="stop36" />
      <stop
         offset="1"
         stop-color="#6B13F5"
         id="stop37" />
    </linearGradient>
    <linearGradient
       id="paint1_linear_1340_94"
       x1="55.603401"
       y1="45.876801"
       x2="41.1422"
       y2="93.997597"
       gradientUnits="userSpaceOnUse">
      <stop
         stop-color="#A73394"
         stop-opacity="0"
         id="stop38" />
      <stop
         offset="1"
         stop-color="#6B13F5"
         id="stop39" />
    </linearGradient>
    <linearGradient
       id="paint2_linear_1340_94"
       x1="84.0271"
       y1="87.016403"
       x2="39.3969"
       y2="54.603401"
       gradientUnits="userSpaceOnUse">
      <stop
         offset="0.385417"
         stop-color="#6B13F5"
         id="stop40" />
      <stop
         offset="1"
         stop-color="#E2606E"
         stop-opacity="0"
         id="stop41" />
    </linearGradient>
    <linearGradient
       id="paint3_linear_1340_94"
       x1="25.9331"
       y1="4.7372799"
       x2="29.9223"
       y2="37.8983"
       gradientUnits="userSpaceOnUse">
      <stop
         offset="0.182292"
         stop-color="#6B13F5"
         id="stop42" />
      <stop
         offset="1"
         stop-color="#CB4758"
         stop-opacity="0"
         id="stop43" />
    </linearGradient>
    <linearGradient
       id="paint4_linear_1340_94"
       x1="64.5793"
       y1="35.903599"
       x2="37.6516"
       y2="52.359402"
       gradientUnits="userSpaceOnUse">
      <stop
         stop-color="#6B13F5"
         id="stop44" />
      <stop
         offset="1"
         stop-color="#E46373"
         stop-opacity="0"
         id="stop45" />
    </linearGradient>
    <radialGradient
       id="paint5_radial_1340_94"
       cx="0"
       cy="0"
       r="1"
       gradientUnits="userSpaceOnUse"
       gradientTransform="matrix(-52.608728,3.4905789,-9.1603497,-138.06144,38.6489,53.1074)">
      <stop
         stop-color="#F55C15"
         stop-opacity="0.46"
         id="stop46" />
      <stop
         offset="0.831969"
         stop-color="#EE82C6"
         stop-opacity="0"
         id="stop47" />
    </radialGradient>
    <radialGradient
       id="paint6_radial_1340_94"
       cx="0"
       cy="0"
       r="1"
       gradientUnits="userSpaceOnUse"
       gradientTransform="matrix(34.656903,-12.466526,12.449535,34.609666,-1.49331,68.0673)">
      <stop
         stop-color="#FF9EFA"
         id="stop48" />
      <stop
         offset="1"
         stop-color="#DD5A68"
         stop-opacity="0"
         id="stop49" />
    </radialGradient>
    <linearGradient
       id="paint7_linear_1340_94"
       x1="7.2332702"
       y1="62.3326"
       x2="48.123501"
       y2="30.169001"
       gradientUnits="userSpaceOnUse">
      <stop
         stop-color="#FF9EFA"
         id="stop50" />
      <stop
         offset="0.422647"
         stop-color="#F55C15"
         stop-opacity="0.84"
         id="stop51" />
      <stop
         offset="1"
         stop-color="#6B13F5"
         id="stop52" />
    </linearGradient>
    <linearGradient
       id="paint8_linear_1340_94"
       x1="55.603401"
       y1="45.876801"
       x2="41.1422"
       y2="93.997597"
       gradientUnits="userSpaceOnUse">
      <stop
         stop-color="#A73394"
         stop-opacity="0"
         id="stop53" />
      <stop
         offset="1"
         stop-color="#6B13F5"
         id="stop54" />
    </linearGradient>
    <linearGradient
       id="paint9_linear_1340_94"
       x1="84.0271"
       y1="87.016403"
       x2="39.3969"
       y2="54.603401"
       gradientUnits="userSpaceOnUse">
      <stop
         offset="0.385417"
         stop-color="#6B13F5"
         id="stop55" />
      <stop
         offset="1"
         stop-color="#E2606E"
         stop-opacity="0"
         id="stop56" />
    </linearGradient>
    <linearGradient
       id="paint10_linear_1340_94"
       x1="25.9331"
       y1="4.7372799"
       x2="29.9223"
       y2="37.8983"
       gradientUnits="userSpaceOnUse">
      <stop
         offset="0.182292"
         stop-color="#6B13F5"
         id="stop57" />
      <stop
         offset="1"
         stop-color="#CB4758"
         stop-opacity="0"
         id="stop58" />
    </linearGradient>
    <linearGradient
       id="paint11_linear_1340_94"
       x1="64.5793"
       y1="35.903599"
       x2="37.6516"
       y2="52.359402"
       gradientUnits="userSpaceOnUse">
      <stop
         stop-color="#6B13F5"
         id="stop59" />
      <stop
         offset="1"
         stop-color="#E46373"
         stop-opacity="0"
         id="stop60" />
    </linearGradient>
    <radialGradient
       id="paint12_radial_1340_94"
       cx="0"
       cy="0"
       r="1"
       gradientUnits="userSpaceOnUse"
       gradientTransform="matrix(-52.608728,3.4905789,-9.1603497,-138.06144,38.6489,53.1074)">
      <stop
         stop-color="#F55C15"
         stop-opacity="0.46"
         id="stop61" />
      <stop
         offset="0.831969"
         stop-color="#EE82C6"
         stop-opacity="0"
         id="stop62" />
    </radialGradient>
    <radialGradient
       id="paint13_radial_1340_94"
       cx="0"
       cy="0"
       r="1"
       gradientUnits="userSpaceOnUse"
       gradientTransform="matrix(34.656903,-12.466526,12.449535,34.609666,-1.49331,68.0673)">
      <stop
         stop-color="#FF9EFA"
         id="stop63" />
      <stop
         offset="1"
         stop-color="#DD5A68"
         stop-opacity="0"
         id="stop64" />
    </radialGradient>
    <linearGradient
       id="paint14_linear_1340_94"
       x1="7.2332702"
       y1="62.3326"
       x2="48.123501"
       y2="30.169001"
       gradientUnits="userSpaceOnUse">
      <stop
         stop-color="#FF9EFA"
         id="stop65" />
      <stop
         offset="0.422647"
         stop-color="#F55C15"
         stop-opacity="0.84"
         id="stop66" />
      <stop
         offset="1"
         stop-color="#6B13F5"
         id="stop67" />
    </linearGradient>
    <linearGradient
       id="paint15_linear_1340_94"
       x1="55.603401"
       y1="45.876801"
       x2="41.1422"
       y2="93.997597"
       gradientUnits="userSpaceOnUse">
      <stop
         stop-color="#A73394"
         stop-opacity="0"
         id="stop68" />
      <stop
         offset="1"
         stop-color="#6B13F5"
         id="stop69" />
    </linearGradient>
    <linearGradient
       id="paint16_linear_1340_94"
       x1="84.0271"
       y1="87.016403"
       x2="39.3969"
       y2="54.603401"
       gradientUnits="userSpaceOnUse">
      <stop
         offset="0.385417"
         stop-color="#6B13F5"
         id="stop70" />
      <stop
         offset="1"
         stop-color="#E2606E"
         stop-opacity="0"
         id="stop71" />
    </linearGradient>
    <linearGradient
       id="paint17_linear_1340_94"
       x1="25.9331"
       y1="4.7372799"
       x2="29.9223"
       y2="37.8983"
       gradientUnits="userSpaceOnUse">
      <stop
         offset="0.182292"
         stop-color="#6B13F5"
         id="stop72" />
      <stop
         offset="1"
         stop-color="#CB4758"
         stop-opacity="0"
         id="stop73" />
    </linearGradient>
    <linearGradient
       id="paint18_linear_1340_94"
       x1="64.5793"
       y1="35.903599"
       x2="37.6516"
       y2="52.359402"
       gradientUnits="userSpaceOnUse">
      <stop
         stop-color="#6B13F5"
         id="stop74" />
      <stop
         offset="1"
         stop-color="#E46373"
         stop-opacity="0"
         id="stop75" />
    </linearGradient>
    <radialGradient
       id="paint19_radial_1340_94"
       cx="0"
       cy="0"
       r="1"
       gradientUnits="userSpaceOnUse"
       gradientTransform="matrix(-52.608728,3.4905789,-9.1603497,-138.06144,38.6489,53.1074)">
      <stop
         stop-color="#F55C15"
         stop-opacity="0.46"
         id="stop76" />
      <stop
         offset="0.831969"
         stop-color="#EE82C6"
         stop-opacity="0"
         id="stop77" />
    </radialGradient>
    <radialGradient
       id="paint20_radial_1340_94"
       cx="0"
       cy="0"
       r="1"
       gradientUnits="userSpaceOnUse"
       gradientTransform="matrix(34.656903,-12.466526,12.449535,34.609666,-1.49331,68.0673)">
      <stop
         stop-color="#FF9EFA"
         id="stop78" />
      <stop
         offset="1"
         stop-color="#DD5A68"
         stop-opacity="0"
         id="stop79" />
    </radialGradient>
    <linearGradient
       id="paint21_linear_1340_94"
       x1="7.2332702"
       y1="62.3326"
       x2="48.123501"
       y2="30.169001"
       gradientUnits="userSpaceOnUse">
      <stop
         stop-color="#FF9EFA"
         id="stop80" />
      <stop
         offset="0.422647"
         stop-color="#F55C15"
         stop-opacity="0.84"
         id="stop81" />
      <stop
         offset="1"
         stop-color="#6B13F5"
         id="stop82" />
    </linearGradient>
    <linearGradient
       id="paint22_linear_1340_94"
       x1="55.603401"
       y1="45.876801"
       x2="41.1422"
       y2="93.997597"
       gradientUnits="userSpaceOnUse">
      <stop
         stop-color="#A73394"
         stop-opacity="0"
         id="stop83" />
      <stop
         offset="1"
         stop-color="#6B13F5"
         id="stop84" />
    </linearGradient>
    <linearGradient
       id="paint23_linear_1340_94"
       x1="84.0271"
       y1="87.016403"
       x2="39.3969"
       y2="54.603401"
       gradientUnits="userSpaceOnUse">
      <stop
         offset="0.385417"
         stop-color="#6B13F5"
         id="stop85" />
      <stop
         offset="1"
         stop-color="#E2606E"
         stop-opacity="0"
         id="stop86" />
    </linearGradient>
    <linearGradient
       id="paint24_linear_1340_94"
       x1="25.9331"
       y1="4.7372799"
       x2="29.9223"
       y2="37.8983"
       gradientUnits="userSpaceOnUse">
      <stop
         offset="0.182292"
         stop-color="#6B13F5"
         id="stop87" />
      <stop
         offset="1"
         stop-color="#CB4758"
         stop-opacity="0"
         id="stop88" />
    </linearGradient>
    <linearGradient
       id="paint25_linear_1340_94"
       x1="64.5793"
       y1="35.903599"
       x2="37.6516"
       y2="52.359402"
       gradientUnits="userSpaceOnUse">
      <stop
         stop-color="#6B13F5"
         id="stop89" />
      <stop
         offset="1"
         stop-color="#E46373"
         stop-opacity="0"
         id="stop90" />
    </linearGradient>
    <radialGradient
       id="paint26_radial_1340_94"
       cx="0"
       cy="0"
       r="1"
       gradientUnits="userSpaceOnUse"
       gradientTransform="matrix(-52.608728,3.4905789,-9.1603497,-138.06144,38.6489,53.1074)">
      <stop
         stop-color="#F55C15"
         stop-opacity="0.46"
         id="stop91" />
      <stop
         offset="0.831969"
         stop-color="#EE82C6"
         stop-opacity="0"
         id="stop92" />
    </radialGradient>
    <radialGradient
       id="paint27_radial_1340_94"
       cx="0"
       cy="0"
       r="1"
       gradientUnits="userSpaceOnUse"
       gradientTransform="matrix(34.656903,-12.466526,12.449535,34.609666,-1.49331,68.0673)">
      <stop
         stop-color="#FF9EFA"
         id="stop93" />
      <stop
         offset="1"
         stop-color="#DD5A68"
         stop-opacity="0"
         id="stop94" />
    </radialGradient>
  </defs>
</svg>
